<svg version="1.1" id="Layer_1" xmlns="http://www.w3.org/2000/svg" xmlns:xlink="http://www.w3.org/1999/xlink" x="0px" y="0px"
	 width="100%" viewBox="0 0 811 221" enable-background="new 0 0 811 221" xml:space="preserve">
<path fill="#1A1C20" opacity="1.000000" stroke="none" 
	d="
M601.000000,222.000000 
	C400.715027,222.000000 200.930069,222.000000 1.072556,222.000000 
	C1.072556,148.399597 1.072556,74.799103 1.072556,1.099303 
	C271.333313,1.099303 541.666626,1.099303 811.974243,1.099303 
	C811.974243,74.736649 811.974243,148.368332 811.974243,222.000000 
	C741.799011,222.000000 671.649536,222.000000 601.000000,222.000000 
M116.543640,138.871155 
	C137.724808,171.651779 180.985214,176.922226 207.532227,149.730103 
	C211.196304,145.976974 215.001190,144.020096 220.051056,142.766922 
	C233.891968,139.332153 245.308228,132.304321 250.197769,117.887108 
	C254.951645,103.869980 245.888260,91.637489 231.164932,91.928711 
	C229.181503,91.967941 227.201752,92.193604 225.220306,92.332932 
	C225.343582,91.895981 225.466873,91.459030 225.590149,91.022079 
	C223.620926,90.210594 221.654495,88.699371 219.682053,88.691475 
	C184.045456,88.548859 148.408142,88.584450 112.770988,88.598701 
	C111.319954,88.599281 109.868988,88.763779 108.363945,88.855194 
	C107.958931,106.067574 106.866577,122.978432 116.543640,138.871155 
M537.947754,155.384583 
	C537.947754,157.647110 537.947754,159.909637 537.947754,162.561844 
	C549.544800,162.561844 560.519592,162.706680 571.486694,162.482498 
	C575.274475,162.405060 579.177185,161.850403 582.796753,160.753128 
	C595.078979,157.029861 601.162659,144.879654 596.979736,133.055328 
	C594.752014,126.757927 590.120361,122.794556 584.262268,120.329651 
	C587.295349,117.653793 590.639526,115.568871 592.824768,112.623985 
	C601.726685,100.627235 594.420471,83.213806 578.634888,81.314140 
	C565.405151,79.722038 551.831665,80.987129 537.947754,80.987129 
	C537.947754,105.175636 537.947754,129.795166 537.947754,155.384583 
M425.035767,129.500000 
	C425.035767,118.758179 425.035767,108.016357 425.035767,97.274094 
	C420.124908,97.274094 415.869202,97.274094 411.374420,97.274094 
	C411.211182,99.999870 411.061920,102.491943 410.890533,105.353905 
	C394.079224,92.092911 374.856049,93.093094 364.262268,107.940567 
	C355.481110,120.247559 355.088440,133.848450 361.729034,147.158752 
	C369.172546,162.078400 385.536591,167.658371 400.735504,160.967285 
	C404.363190,159.370255 407.512634,156.686935 411.284058,154.242691 
	C411.284058,157.099518 411.284058,159.555878 411.284058,162.235626 
	C415.991486,162.235626 420.381195,162.235626 425.035767,162.235626 
	C425.035767,151.439087 425.035767,140.969543 425.035767,129.500000 
M285.873047,127.977119 
	C285.834137,123.668770 285.261719,119.284851 285.859253,115.066658 
	C287.462158,103.751282 293.493439,95.568718 304.689392,92.187286 
	C313.947235,89.391197 327.684387,90.100822 334.722534,101.846703 
	C335.237885,102.706764 336.436646,103.657692 337.351990,103.693680 
	C342.070129,103.879135 346.799469,103.779709 351.734619,103.779709 
	C346.082581,86.721527 326.052124,75.993752 307.242340,79.349602 
	C284.966003,83.323921 270.620789,100.388718 271.191559,122.234833 
	C271.747589,143.516235 287.086639,160.548187 307.956299,162.958237 
	C328.849792,165.371063 346.840942,154.485306 351.521210,138.636673 
	C347.602234,138.636673 343.795959,138.827377 340.019135,138.576202 
	C337.010040,138.376053 335.263336,139.413971 333.579834,141.975174 
	C330.120239,147.238480 324.941833,150.124969 318.672760,151.005066 
	C302.148254,153.324905 290.474060,145.418533 285.873047,127.977119 
M466.268982,123.970146 
	C466.174683,126.131386 465.983856,128.293381 466.000977,130.453735 
	C466.179657,152.944992 484.276184,167.529953 506.277679,162.943863 
	C517.614014,160.580887 526.800964,152.282867 528.106750,143.024872 
	C524.589966,143.024872 521.074646,142.767197 517.625977,143.134995 
	C515.935608,143.315277 513.910767,144.266403 512.825134,145.540131 
	C507.839691,151.389114 500.674225,153.645264 493.051941,151.358582 
	C485.244995,149.016510 481.240967,143.957626 480.372681,135.016403 
	C496.846436,135.016403 513.290344,135.016403 530.044983,135.016403 
	C531.497498,124.562317 530.346985,114.975662 523.502747,106.993774 
	C514.415039,96.395424 502.449005,93.955391 489.448334,97.168564 
	C476.115204,100.463905 468.684418,109.644005 466.268982,123.970146 
M605.285583,144.093246 
	C609.457886,153.465302 616.294922,159.670364 626.324707,162.434052 
	C641.647705,166.656326 658.003906,160.279327 665.551819,146.898193 
	C673.241638,133.265381 670.343567,114.520142 658.955383,104.232124 
	C647.763855,94.121742 629.050110,93.178040 616.270935,102.079597 
	C604.011536,110.619095 599.681396,126.483864 605.285583,144.093246 
M460.845154,82.187096 
	C461.686646,81.305862 463.137177,80.497978 463.253845,79.529442 
	C463.584534,76.784058 463.369690,73.972961 463.369690,70.947212 
	C456.535950,70.679947 450.465515,71.609039 445.321381,75.410332 
	C438.141327,80.716064 438.690063,88.981178 438.204559,96.841286 
	C435.622040,96.974197 433.354736,97.090889 430.954285,97.214432 
	C430.954285,100.888641 430.954285,104.336624 430.954285,107.918663 
	C433.426178,108.059944 435.699829,108.189888 438.553894,108.353004 
	C438.553894,126.487305 438.553894,144.366409 438.553894,162.212311 
	C443.399200,162.212311 447.636444,162.212311 452.290283,162.212311 
	C452.290283,144.096146 452.290283,126.332680 452.290283,108.119560 
	C456.453400,108.119560 460.202148,108.119560 464.064148,108.119560 
	C464.064148,104.206200 464.064148,100.752335 464.064148,96.880547 
	C460.073547,96.880547 456.298859,96.880547 452.588531,96.880547 
	C451.498322,86.937851 452.788391,84.501808 460.845154,82.187096 
M695.794556,108.108818 
	C700.071045,108.108818 704.347534,108.108818 708.713257,108.108818 
	C708.713257,104.190056 708.713257,100.791435 708.713257,96.854889 
	C703.406799,96.854889 698.351990,96.854889 692.808594,96.854889 
	C692.808594,91.249443 692.808594,86.181396 692.808594,81.210381 
	C688.050354,81.210381 683.806335,81.210381 679.096191,81.210381 
	C679.096191,86.607162 679.096191,91.686325 679.096191,96.811867 
	C676.378967,96.978432 674.129456,97.116318 671.831909,97.257156 
	C671.831909,101.002098 671.831909,104.413322 671.831909,107.902786 
	C674.377625,108.063438 676.636047,108.205956 679.191162,108.367195 
	C679.191162,110.335480 679.190857,111.978310 679.191223,113.621140 
	C679.193542,123.942177 679.073730,134.265121 679.234314,144.583694 
	C679.383850,154.192078 683.236755,160.192703 690.818420,161.561234 
	C696.618713,162.608215 702.633545,162.466232 708.630859,162.858185 
	C708.630859,158.493057 708.630859,154.942520 708.630859,151.120163 
	C705.811462,151.120163 703.334106,151.165543 700.858887,151.111252 
	C694.620178,150.974380 693.101990,149.529999 693.071960,143.469574 
	C693.020020,132.982315 692.993469,122.493782 693.134521,112.008171 
	C693.152100,110.705658 694.254822,109.417747 695.794556,108.108818 
M205.301483,171.794373 
	C178.492615,171.794388 151.683746,171.793686 124.874878,171.796432 
	C123.543159,171.796570 121.945435,171.365784 120.939682,171.946457 
	C119.270294,172.910294 116.675049,174.718079 116.833282,175.835754 
	C117.080948,177.585007 119.104095,179.321060 120.761147,180.536407 
	C121.647240,181.186295 123.341141,180.774155 124.670494,180.774521 
	C152.478455,180.782257 180.286407,180.782639 208.094376,180.773529 
	C209.422379,180.773102 211.129486,181.170380 211.996552,180.510559 
	C213.619095,179.275742 215.597672,177.496078 215.793686,175.758682 
	C215.922409,174.617722 213.379959,172.689590 211.672943,171.970413 
	C210.112961,171.313202 208.067841,171.807556 205.301483,171.794373 
M179.975800,45.544426 
	C179.675156,47.922844 180.250122,49.340038 183.124313,49.087261 
	C185.704102,48.860374 188.319580,49.039474 191.247986,49.039474 
	C191.247986,53.149071 191.247986,56.594528 191.247986,60.280014 
	C194.140472,60.280014 196.681839,60.280014 199.809387,60.280014 
	C199.809387,56.383244 199.809387,52.827751 199.809387,48.808281 
	C203.806244,48.808281 207.216904,48.808281 210.514099,48.808281 
	C210.514099,46.064785 210.514099,43.835938 210.514099,41.114742 
	C206.722626,41.114742 203.305954,41.114742 199.509766,41.114742 
	C199.509766,37.176708 199.509766,33.747036 199.509766,30.173023 
	C196.530624,30.173023 193.958847,30.173023 191.027878,30.173023 
	C191.027878,33.923328 191.027878,37.371719 191.027878,41.248158 
	C188.058624,41.248158 185.370041,40.912476 182.841095,41.401817 
	C181.719711,41.618797 180.921036,43.503521 179.975800,45.544426 
M158.962646,70.393265 
	C161.059631,70.393265 163.156601,70.393265 165.816681,70.393265 
	C165.816681,74.631783 165.816681,78.179626 165.816681,81.588531 
	C168.802292,81.588531 171.204926,81.588531 173.997894,81.588531 
	C173.997894,77.806244 173.997894,74.373802 173.997894,70.456062 
	C177.813446,70.456062 181.230896,70.456062 184.871582,70.456062 
	C184.871582,67.732300 184.871582,65.503181 184.871582,62.746246 
	C181.213425,62.746246 177.809723,62.746246 173.819931,62.746246 
	C173.819931,58.680004 173.819931,55.126682 173.819931,51.553741 
	C170.817734,51.553741 168.428680,51.553741 165.439911,51.553741 
	C165.439911,55.409294 165.439911,58.951824 165.439911,62.986229 
	C161.435196,62.986229 158.030502,62.986229 153.334473,62.986229 
	C155.705215,65.845085 151.446869,70.794472 158.962646,70.393265 
M496.525726,87.002411 
	C500.434967,85.197243 504.398865,83.497780 508.220245,81.522591 
	C509.369232,80.928696 510.826538,79.632500 510.926910,78.545738 
	C511.264893,74.886398 511.055573,71.176514 511.055573,66.676704 
	C503.164429,70.736755 496.282440,74.305473 489.374695,77.823692 
	C482.766144,81.189514 481.491608,84.768723 484.521027,92.305626 
	C488.293915,90.636932 492.062714,88.970039 496.525726,87.002411 
z"/>
<path fill="#FCFDFD" opacity="1.000000" stroke="none" 
	d="
M116.336456,138.568314 
	C106.866577,122.978432 107.958931,106.067574 108.363945,88.855194 
	C109.868988,88.763779 111.319954,88.599281 112.770988,88.598701 
	C148.408142,88.584450 184.045456,88.548859 219.682053,88.691475 
	C221.654495,88.699371 223.620926,90.210594 225.590149,91.022079 
	C225.466873,91.459030 225.343582,91.895981 225.220306,92.332932 
	C227.201752,92.193604 229.181503,91.967941 231.164932,91.928711 
	C245.888260,91.637489 254.951645,103.869980 250.197769,117.887108 
	C245.308228,132.304321 233.891968,139.332153 220.051056,142.766922 
	C215.001190,144.020096 211.196304,145.976974 207.532227,149.730103 
	C180.985214,176.922226 137.724808,171.651779 116.336456,138.568314 
M167.552307,101.660973 
	C165.758301,99.948990 164.316422,98.320000 161.102768,99.454697 
	C159.633621,99.973427 156.751877,98.154839 155.290161,96.642860 
	C153.075180,94.351707 148.623764,93.914299 147.113068,96.714119 
	C145.453705,99.789497 143.418869,100.344933 140.185440,99.347305 
	C136.501221,98.210602 134.146286,101.272057 134.500305,105.195274 
	C134.653427,106.892075 132.919632,108.812065 131.897766,110.545082 
	C131.094910,111.906708 129.351089,113.134415 129.346741,114.426071 
	C129.342484,115.686050 131.072525,116.913605 131.936234,118.224525 
	C133.004196,119.845421 134.942673,121.632973 134.791779,123.181595 
	C134.286026,128.372192 135.924057,130.077362 140.931137,129.345352 
	C142.733200,129.081909 145.447510,129.790421 146.563202,131.079010 
	C150.034973,135.088852 152.482986,135.197281 155.692596,131.173386 
	C156.653305,129.968964 159.220337,128.642639 160.220779,129.118500 
	C164.325485,131.070953 166.357712,128.766373 168.655411,125.943367 
	C166.312195,122.182228 166.233353,119.323265 171.356216,117.648666 
	C172.232834,117.362106 172.354630,111.635590 172.136871,111.588257 
	C166.174347,110.292130 166.984711,106.307236 167.552307,101.660973 
M186.688904,152.212387 
	C186.784332,148.826691 188.585663,147.295135 191.875961,146.656494 
	C193.264801,146.386932 195.055511,144.928558 195.436737,143.645935 
	C195.815887,142.370224 194.640930,140.641525 194.174240,139.103333 
	C193.518127,136.940735 192.845322,134.781769 192.258865,132.599960 
	C191.845688,131.062729 192.063660,128.861298 191.096771,128.093277 
	C189.902237,127.144409 187.757904,127.439987 186.049500,127.077545 
	C183.654388,126.569443 181.273453,125.986176 178.904343,125.366669 
	C177.233994,124.929878 175.415024,123.698174 173.989532,124.071274 
	C172.562149,124.444870 171.622803,126.464966 170.322052,127.593361 
	C168.522278,129.154663 166.550278,130.515808 164.718414,132.042343 
	C163.582550,132.988907 162.140121,133.909454 161.632950,135.164108 
	C161.200912,136.232910 161.476791,138.585052 162.182068,138.955429 
	C166.944473,141.456421 165.963821,144.862915 163.840942,148.535416 
	C166.331573,150.827179 167.909546,154.132996 172.188492,151.354324 
	C173.282852,150.643661 176.550308,151.547897 177.559982,152.759583 
	C180.719345,156.551132 183.495636,155.131165 186.688904,152.212387 
M235.371048,124.859245 
	C237.036285,122.593430 239.032013,120.497192 240.299347,118.027214 
	C243.113754,112.542122 242.573807,106.542343 239.408981,103.556854 
	C236.027969,100.367439 230.300751,100.150932 225.489944,102.547012 
	C223.803192,113.103920 222.209366,123.079140 220.434998,134.184357 
	C225.404160,131.127380 230.116653,128.228317 235.371048,124.859245 
z"/>
<path fill="#F8F8F8" opacity="1.000000" stroke="none" 
	d="
M537.947754,154.899643 
	C537.947754,129.795166 537.947754,105.175636 537.947754,80.987129 
	C551.831665,80.987129 565.405151,79.722038 578.634888,81.314140 
	C594.420471,83.213806 601.726685,100.627235 592.824768,112.623985 
	C590.639526,115.568871 587.295349,117.653793 584.262268,120.329651 
	C590.120361,122.794556 594.752014,126.757927 596.979736,133.055328 
	C601.162659,144.879654 595.078979,157.029861 582.796753,160.753128 
	C579.177185,161.850403 575.274475,162.405060 571.486694,162.482498 
	C560.519592,162.706680 549.544800,162.561844 537.947754,162.561844 
	C537.947754,159.909637 537.947754,157.647110 537.947754,154.899643 
M551.731873,146.487274 
	C551.731873,148.067886 551.731873,149.648514 551.731873,151.217865 
	C559.164795,151.217865 565.838196,151.509064 572.475037,151.140457 
	C579.926147,150.726624 584.322510,146.384338 584.776672,139.834427 
	C585.232178,133.266327 581.083252,127.174271 574.065125,126.359474 
	C566.756042,125.510902 559.271973,126.170204 551.732056,126.170204 
	C551.732056,132.839432 551.732056,139.161987 551.731873,146.487274 
M554.780701,114.681870 
	C560.589478,114.550056 566.437256,114.791771 572.196838,114.189697 
	C579.044312,113.473900 582.483337,109.344467 582.491211,102.985031 
	C582.499023,96.670593 579.068420,92.231895 572.328613,91.595825 
	C565.636536,90.964249 558.838318,91.457573 551.719116,91.457573 
	C551.719116,98.475517 551.641846,105.266624 551.812744,112.051483 
	C551.835205,112.940926 553.129211,113.798325 554.780701,114.681870 
z"/>
<path fill="#F9F9F9" opacity="1.000000" stroke="none" 
	d="
M425.035767,130.000000 
	C425.035767,140.969543 425.035767,151.439087 425.035767,162.235626 
	C420.381195,162.235626 415.991486,162.235626 411.284058,162.235626 
	C411.284058,159.555878 411.284058,157.099518 411.284058,154.242691 
	C407.512634,156.686935 404.363190,159.370255 400.735504,160.967285 
	C385.536591,167.658371 369.172546,162.078400 361.729034,147.158752 
	C355.088440,133.848450 355.481110,120.247559 364.262268,107.940567 
	C374.856049,93.093094 394.079224,92.092911 410.890533,105.353905 
	C411.061920,102.491943 411.211182,99.999870 411.374420,97.274094 
	C415.869202,97.274094 420.124908,97.274094 425.035767,97.274094 
	C425.035767,108.016357 425.035767,118.758179 425.035767,130.000000 
M400.706299,149.460175 
	C403.600494,146.135864 407.411530,143.245071 409.225067,139.409760 
	C415.916443,125.258652 406.776215,108.547791 392.450470,107.877319 
	C384.333771,107.497444 377.107544,111.736420 373.799377,118.818192 
	C369.610809,127.784622 370.997650,138.734390 377.178680,145.499146 
	C382.964050,151.830841 390.659363,153.287994 400.706299,149.460175 
z"/>
<path fill="#F9F9F9" opacity="1.000000" stroke="none" 
	d="
M285.934082,128.416489 
	C290.474060,145.418533 302.148254,153.324905 318.672760,151.005066 
	C324.941833,150.124969 330.120239,147.238480 333.579834,141.975174 
	C335.263336,139.413971 337.010040,138.376053 340.019135,138.576202 
	C343.795959,138.827377 347.602234,138.636673 351.521210,138.636673 
	C346.840942,154.485306 328.849792,165.371063 307.956299,162.958237 
	C287.086639,160.548187 271.747589,143.516235 271.191559,122.234833 
	C270.620789,100.388718 284.966003,83.323921 307.242340,79.349602 
	C326.052124,75.993752 346.082581,86.721527 351.734619,103.779709 
	C346.799469,103.779709 342.070129,103.879135 337.351990,103.693680 
	C336.436646,103.657692 335.237885,102.706764 334.722534,101.846703 
	C327.684387,90.100822 313.947235,89.391197 304.689392,92.187286 
	C293.493439,95.568718 287.462158,103.751282 285.859253,115.066658 
	C285.261719,119.284851 285.834137,123.668770 285.934082,128.416489 
z"/>
<path fill="#F9F9F9" opacity="1.000000" stroke="none" 
	d="
M466.339478,123.530640 
	C468.684418,109.644005 476.115204,100.463905 489.448334,97.168564 
	C502.449005,93.955391 514.415039,96.395424 523.502747,106.993774 
	C530.346985,114.975662 531.497498,124.562317 530.044983,135.016403 
	C513.290344,135.016403 496.846436,135.016403 480.372681,135.016403 
	C481.240967,143.957626 485.244995,149.016510 493.051941,151.358582 
	C500.674225,153.645264 507.839691,151.389114 512.825134,145.540131 
	C513.910767,144.266403 515.935608,143.315277 517.625977,143.134995 
	C521.074646,142.767197 524.589966,143.024872 528.106750,143.024872 
	C526.800964,152.282867 517.614014,160.580887 506.277679,162.943863 
	C484.276184,167.529953 466.179657,152.944992 466.000977,130.453735 
	C465.983856,128.293381 466.174683,126.131386 466.339478,123.530640 
M480.553467,123.674454 
	C492.333649,123.674454 504.113831,123.674454 516.113831,123.674454 
	C516.221741,117.316505 513.310730,112.801849 507.920410,109.907623 
	C495.856903,103.430321 482.136444,110.084770 480.553467,123.674454 
z"/>
<path fill="#F9F9F9" opacity="1.000000" stroke="none" 
	d="
M605.143799,143.729935 
	C599.681396,126.483864 604.011536,110.619095 616.270935,102.079597 
	C629.050110,93.178040 647.763855,94.121742 658.955383,104.232124 
	C670.343567,114.520142 673.241638,133.265381 665.551819,146.898193 
	C658.003906,160.279327 641.647705,166.656326 626.324707,162.434052 
	C616.294922,159.670364 609.457886,153.465302 605.143799,143.729935 
M624.270325,111.630013 
	C616.717590,118.698059 614.453186,129.602203 618.360535,140.088272 
	C621.451782,148.384171 630.021484,153.211548 638.768494,151.609528 
	C647.349976,150.037781 652.942627,144.974060 654.895935,136.596100 
	C657.098022,127.151703 656.037964,118.038872 647.743652,111.742462 
	C640.549988,106.281555 632.609741,106.476639 624.270325,111.630013 
z"/>
<path fill="#F8F8F8" opacity="1.000000" stroke="none" 
	d="
M460.445374,82.240189 
	C452.788391,84.501808 451.498322,86.937851 452.588531,96.880547 
	C456.298859,96.880547 460.073547,96.880547 464.064148,96.880547 
	C464.064148,100.752335 464.064148,104.206200 464.064148,108.119560 
	C460.202148,108.119560 456.453400,108.119560 452.290283,108.119560 
	C452.290283,126.332680 452.290283,144.096146 452.290283,162.212311 
	C447.636444,162.212311 443.399200,162.212311 438.553894,162.212311 
	C438.553894,144.366409 438.553894,126.487305 438.553894,108.353004 
	C435.699829,108.189888 433.426178,108.059944 430.954285,107.918663 
	C430.954285,104.336624 430.954285,100.888641 430.954285,97.214432 
	C433.354736,97.090889 435.622040,96.974197 438.204559,96.841286 
	C438.690063,88.981178 438.141327,80.716064 445.321381,75.410332 
	C450.465515,71.609039 456.535950,70.679947 463.369690,70.947212 
	C463.369690,73.972961 463.584534,76.784058 463.253845,79.529442 
	C463.137177,80.497978 461.686646,81.305862 460.445374,82.240189 
z"/>
<path fill="#F9F9F9" opacity="1.000000" stroke="none" 
	d="
M695.324646,108.115944 
	C694.254822,109.417747 693.152100,110.705658 693.134521,112.008171 
	C692.993469,122.493782 693.020020,132.982315 693.071960,143.469574 
	C693.101990,149.529999 694.620178,150.974380 700.858887,151.111252 
	C703.334106,151.165543 705.811462,151.120163 708.630859,151.120163 
	C708.630859,154.942520 708.630859,158.493057 708.630859,162.858185 
	C702.633545,162.466232 696.618713,162.608215 690.818420,161.561234 
	C683.236755,160.192703 679.383850,154.192078 679.234314,144.583694 
	C679.073730,134.265121 679.193542,123.942177 679.191223,113.621140 
	C679.190857,111.978310 679.191162,110.335480 679.191162,108.367195 
	C676.636047,108.205956 674.377625,108.063438 671.831909,107.902786 
	C671.831909,104.413322 671.831909,101.002098 671.831909,97.257156 
	C674.129456,97.116318 676.378967,96.978432 679.096191,96.811867 
	C679.096191,91.686325 679.096191,86.607162 679.096191,81.210381 
	C683.806335,81.210381 688.050354,81.210381 692.808594,81.210381 
	C692.808594,86.181396 692.808594,91.249443 692.808594,96.854889 
	C698.351990,96.854889 703.406799,96.854889 708.713257,96.854889 
	C708.713257,100.791435 708.713257,104.190056 708.713257,108.108818 
	C704.347534,108.108818 700.071045,108.108818 695.324646,108.115944 
z"/>
<path fill="#F4F4F4" opacity="1.000000" stroke="none" 
	d="
M205.768997,171.794403 
	C208.067841,171.807556 210.112961,171.313202 211.672943,171.970413 
	C213.379959,172.689590 215.922409,174.617722 215.793686,175.758682 
	C215.597672,177.496078 213.619095,179.275742 211.996552,180.510559 
	C211.129486,181.170380 209.422379,180.773102 208.094376,180.773529 
	C180.286407,180.782639 152.478455,180.782257 124.670494,180.774521 
	C123.341141,180.774155 121.647240,181.186295 120.761147,180.536407 
	C119.104095,179.321060 117.080948,177.585007 116.833282,175.835754 
	C116.675049,174.718079 119.270294,172.910294 120.939682,171.946457 
	C121.945435,171.365784 123.543159,171.796570 124.874878,171.796432 
	C151.683746,171.793686 178.492615,171.794388 205.768997,171.794403 
z"/>
<path fill="#EDEEEE" opacity="1.000000" stroke="none" 
	d="
M179.975830,45.087818 
	C180.921036,43.503521 181.719711,41.618797 182.841095,41.401817 
	C185.370041,40.912476 188.058624,41.248158 191.027878,41.248158 
	C191.027878,37.371719 191.027878,33.923328 191.027878,30.173023 
	C193.958847,30.173023 196.530624,30.173023 199.509766,30.173023 
	C199.509766,33.747036 199.509766,37.176708 199.509766,41.114742 
	C203.305954,41.114742 206.722626,41.114742 210.514099,41.114742 
	C210.514099,43.835938 210.514099,46.064785 210.514099,48.808281 
	C207.216904,48.808281 203.806244,48.808281 199.809387,48.808281 
	C199.809387,52.827751 199.809387,56.383244 199.809387,60.280014 
	C196.681839,60.280014 194.140472,60.280014 191.247986,60.280014 
	C191.247986,56.594528 191.247986,53.149071 191.247986,49.039474 
	C188.319580,49.039474 185.704102,48.860374 183.124313,49.087261 
	C180.250122,49.340038 179.675156,47.922844 179.975830,45.087818 
z"/>
<path fill="#F6F6F6" opacity="1.000000" stroke="none" 
	d="
M158.504028,70.393127 
	C151.446869,70.794472 155.705215,65.845085 153.334473,62.986229 
	C158.030502,62.986229 161.435196,62.986229 165.439911,62.986229 
	C165.439911,58.951824 165.439911,55.409294 165.439911,51.553741 
	C168.428680,51.553741 170.817734,51.553741 173.819931,51.553741 
	C173.819931,55.126682 173.819931,58.680004 173.819931,62.746246 
	C177.809723,62.746246 181.213425,62.746246 184.871582,62.746246 
	C184.871582,65.503181 184.871582,67.732300 184.871582,70.456062 
	C181.230896,70.456062 177.813446,70.456062 173.997894,70.456062 
	C173.997894,74.373802 173.997894,77.806244 173.997894,81.588531 
	C171.204926,81.588531 168.802292,81.588531 165.816681,81.588531 
	C165.816681,78.179626 165.816681,74.631783 165.816681,70.393265 
	C163.156601,70.393265 161.059631,70.393265 158.504028,70.393127 
z"/>
<path fill="#D03D69" opacity="1.000000" stroke="none" 
	d="
M496.178619,87.152779 
	C492.062714,88.970039 488.293915,90.636932 484.521027,92.305626 
	C481.491608,84.768723 482.766144,81.189514 489.374695,77.823692 
	C496.282440,74.305473 503.164429,70.736755 511.055573,66.676704 
	C511.055573,71.176514 511.264893,74.886398 510.926910,78.545738 
	C510.826538,79.632500 509.369232,80.928696 508.220245,81.522591 
	C504.398865,83.497780 500.434967,85.197243 496.178619,87.152779 
z"/>
<path fill="#58BAF9" opacity="1.000000" stroke="none" 
	d="
M167.802887,101.902321 
	C166.984711,106.307236 166.174347,110.292130 172.136871,111.588257 
	C172.354630,111.635590 172.232834,117.362106 171.356216,117.648666 
	C166.233353,119.323265 166.312195,122.182228 168.655411,125.943367 
	C166.357712,128.766373 164.325485,131.070953 160.220779,129.118500 
	C159.220337,128.642639 156.653305,129.968964 155.692596,131.173386 
	C152.482986,135.197281 150.034973,135.088852 146.563202,131.079010 
	C145.447510,129.790421 142.733200,129.081909 140.931137,129.345352 
	C135.924057,130.077362 134.286026,128.372192 134.791779,123.181595 
	C134.942673,121.632973 133.004196,119.845421 131.936234,118.224525 
	C131.072525,116.913605 129.342484,115.686050 129.346741,114.426071 
	C129.351089,113.134415 131.094910,111.906708 131.897766,110.545082 
	C132.919632,108.812065 134.653427,106.892075 134.500305,105.195274 
	C134.146286,101.272057 136.501221,98.210602 140.185440,99.347305 
	C143.418869,100.344933 145.453705,99.789497 147.113068,96.714119 
	C148.623764,93.914299 153.075180,94.351707 155.290161,96.642860 
	C156.751877,98.154839 159.633621,99.973427 161.102768,99.454697 
	C164.316422,98.320000 165.758301,99.948990 167.802887,101.902321 
M145.955078,121.899567 
	C150.679535,124.149033 155.065155,123.735039 158.679504,119.817039 
	C161.151215,117.137642 161.706680,113.956673 159.777924,110.623825 
	C157.360291,106.446136 153.325943,104.786224 149.158142,106.194206 
	C146.249405,107.176834 143.200531,109.827682 141.760742,112.550987 
	C139.940277,115.994278 142.286743,119.196571 145.955078,121.899567 
z"/>
<path fill="#59BAF9" opacity="1.000000" stroke="none" 
	d="
M186.607193,152.598572 
	C183.495636,155.131165 180.719345,156.551132 177.559982,152.759583 
	C176.550308,151.547897 173.282852,150.643661 172.188492,151.354324 
	C167.909546,154.132996 166.331573,150.827179 163.840942,148.535416 
	C165.963821,144.862915 166.944473,141.456421 162.182068,138.955429 
	C161.476791,138.585052 161.200912,136.232910 161.632950,135.164108 
	C162.140121,133.909454 163.582550,132.988907 164.718414,132.042343 
	C166.550278,130.515808 168.522278,129.154663 170.322052,127.593361 
	C171.622803,126.464966 172.562149,124.444870 173.989532,124.071274 
	C175.415024,123.698174 177.233994,124.929878 178.904343,125.366669 
	C181.273453,125.986176 183.654388,126.569443 186.049500,127.077545 
	C187.757904,127.439987 189.902237,127.144409 191.096771,128.093277 
	C192.063660,128.861298 191.845688,131.062729 192.258865,132.599960 
	C192.845322,134.781769 193.518127,136.940735 194.174240,139.103333 
	C194.640930,140.641525 195.815887,142.370224 195.436737,143.645935 
	C195.055511,144.928558 193.264801,146.386932 191.875961,146.656494 
	C188.585663,147.295135 186.784332,148.826691 186.607193,152.598572 
M183.223053,142.366821 
	C183.168060,140.250610 183.854599,137.611191 182.839478,136.172409 
	C181.913437,134.859879 178.938675,134.053650 177.243484,134.489410 
	C175.576401,134.917953 173.769226,136.984406 173.190842,138.720932 
	C172.785019,139.939407 173.939316,142.251770 175.098755,143.297501 
	C177.498962,145.462311 180.241165,144.970413 183.223053,142.366821 
z"/>
<path fill="#212327" opacity="1.000000" stroke="none" 
	d="
M235.100098,125.094238 
	C230.116653,128.228317 225.404160,131.127380 220.434998,134.184357 
	C222.209366,123.079140 223.803192,113.103920 225.489944,102.547012 
	C230.300751,100.150932 236.027969,100.367439 239.408981,103.556854 
	C242.573807,106.542343 243.113754,112.542122 240.299347,118.027214 
	C239.032013,120.497192 237.036285,122.593430 235.100098,125.094238 
z"/>
<path fill="#1B1D21" opacity="1.000000" stroke="none" 
	d="
M551.731934,145.985916 
	C551.732056,139.161987 551.732056,132.839432 551.732056,126.170204 
	C559.271973,126.170204 566.756042,125.510902 574.065125,126.359474 
	C581.083252,127.174271 585.232178,133.266327 584.776672,139.834427 
	C584.322510,146.384338 579.926147,150.726624 572.475037,151.140457 
	C565.838196,151.509064 559.164795,151.217865 551.731873,151.217865 
	C551.731873,149.648514 551.731873,148.067886 551.731934,145.985916 
z"/>
<path fill="#1F2125" opacity="1.000000" stroke="none" 
	d="
M554.307495,114.676216 
	C553.129211,113.798325 551.835205,112.940926 551.812744,112.051483 
	C551.641846,105.266624 551.719116,98.475517 551.719116,91.457573 
	C558.838318,91.457573 565.636536,90.964249 572.328613,91.595825 
	C579.068420,92.231895 582.499023,96.670593 582.491211,102.985031 
	C582.483337,109.344467 579.044312,113.473900 572.196838,114.189697 
	C566.437256,114.791771 560.589478,114.550056 554.307495,114.676216 
z"/>
<path fill="#1D1E22" opacity="1.000000" stroke="none" 
	d="
M400.369263,149.643402 
	C390.659363,153.287994 382.964050,151.830841 377.178680,145.499146 
	C370.997650,138.734390 369.610809,127.784622 373.799377,118.818192 
	C377.107544,111.736420 384.333771,107.497444 392.450470,107.877319 
	C406.776215,108.547791 415.916443,125.258652 409.225067,139.409760 
	C407.411530,143.245071 403.600494,146.135864 400.369263,149.643402 
z"/>
<path fill="#1F2125" opacity="1.000000" stroke="none" 
	d="
M480.467407,123.273743 
	C482.136444,110.084770 495.856903,103.430321 507.920410,109.907623 
	C513.310730,112.801849 516.221741,117.316505 516.113831,123.674454 
	C504.113831,123.674454 492.333649,123.674454 480.467407,123.273743 
z"/>
<path fill="#1C1E22" opacity="1.000000" stroke="none" 
	d="
M624.563232,111.401718 
	C632.609741,106.476639 640.549988,106.281555 647.743652,111.742462 
	C656.037964,118.038872 657.098022,127.151703 654.895935,136.596100 
	C652.942627,144.974060 647.349976,150.037781 638.768494,151.609528 
	C630.021484,153.211548 621.451782,148.384171 618.360535,140.088272 
	C614.453186,129.602203 616.717590,118.698059 624.563232,111.401718 
z"/>
<path fill="#F2FBFE" opacity="1.000000" stroke="none" 
	d="
M145.618958,121.696198 
	C142.286743,119.196571 139.940277,115.994278 141.760742,112.550987 
	C143.200531,109.827682 146.249405,107.176834 149.158142,106.194206 
	C153.325943,104.786224 157.360291,106.446136 159.777924,110.623825 
	C161.706680,113.956673 161.151215,117.137642 158.679504,119.817039 
	C155.065155,123.735039 150.679535,124.149033 145.618958,121.696198 
M156.003754,117.372047 
	C157.831848,114.202576 157.221542,111.127373 153.919144,110.101830 
	C151.742416,109.425858 148.602890,110.300735 146.528671,111.541443 
	C145.585541,112.105583 145.403229,115.690346 146.233765,117.111130 
	C148.026978,120.178726 151.098511,120.763451 154.338348,118.859787 
	C154.758392,118.612984 155.119202,118.265373 156.003754,117.372047 
z"/>
<path fill="#EDF9FE" opacity="1.000000" stroke="none" 
	d="
M182.955368,142.652344 
	C180.241165,144.970413 177.498962,145.462311 175.098755,143.297501 
	C173.939316,142.251770 172.785019,139.939407 173.190842,138.720932 
	C173.769226,136.984406 175.576401,134.917953 177.243484,134.489410 
	C178.938675,134.053650 181.913437,134.859879 182.839478,136.172409 
	C183.854599,137.611191 183.168060,140.250610 182.955368,142.652344 
z"/>
<path fill="#5BBCF9" opacity="1.000000" stroke="none" 
	d="
M155.755615,117.668251 
	C155.119202,118.265373 154.758392,118.612984 154.338348,118.859787 
	C151.098511,120.763451 148.026978,120.178726 146.233765,117.111130 
	C145.403229,115.690346 145.585541,112.105583 146.528671,111.541443 
	C148.602890,110.300735 151.742416,109.425858 153.919144,110.101830 
	C157.221542,111.127373 157.831848,114.202576 155.755615,117.668251 
z"/>
</svg>