<svg version="1.1" id="Layer_1" xmlns="http://www.w3.org/2000/svg" xmlns:xlink="http://www.w3.org/1999/xlink" x="0px" y="0px"
	 width="100%" viewBox="0 0 177 178" enable-background="new 0 0 177 178" xml:space="preserve">
<path fill="#1B1D21" opacity="1.000000" stroke="none" 
	d="
M107.000000,179.000000 
	C71.333336,179.000000 36.166672,179.000000 1.000005,179.000000 
	C1.000003,119.666672 1.000003,60.333344 1.000002,1.000013 
	C59.999989,1.000008 118.999977,1.000008 177.999969,1.000004 
	C177.999985,60.333324 177.999985,119.666649 178.000000,178.999985 
	C154.500000,179.000000 131.000000,179.000000 107.000000,179.000000 
M30.545197,119.868141 
	C51.614388,152.462921 94.559494,157.918625 121.137352,131.084961 
	C125.089890,127.094383 129.189362,125.053589 134.504395,123.674599 
	C148.115616,120.143143 159.359741,113.144600 164.184341,98.930534 
	C168.942413,84.912498 159.921417,72.660828 145.217194,72.930748 
	C143.086563,72.969856 140.959000,73.176369 138.557465,73.321930 
	C139.031204,69.080658 136.233231,69.587234 133.702148,69.588058 
	C98.076981,69.599586 62.451805,69.592041 26.826643,69.609718 
	C25.398294,69.610428 23.970047,69.815002 22.383101,69.936760 
	C21.930696,87.127640 20.896875,103.986885 30.545197,119.868141 
M121.333641,152.799988 
	C94.031128,152.799973 66.728615,152.799133 39.426098,152.802048 
	C37.928230,152.802216 36.182037,152.351685 34.991901,152.965286 
	C33.294762,153.840302 30.695272,155.679947 30.843136,156.794113 
	C31.075623,158.545959 33.111336,160.238770 34.717556,161.546249 
	C35.439461,162.133881 36.968163,161.770401 38.130787,161.770721 
	C66.265686,161.778290 94.400581,161.780319 122.535477,161.765366 
	C123.858948,161.764664 125.558029,162.078644 126.422401,161.402542 
	C127.917747,160.232895 129.710724,158.457291 129.822372,156.829132 
	C129.905975,155.610062 127.722481,153.925446 126.207344,153.016861 
	C125.212799,152.420486 123.610680,152.837296 121.333641,152.799988 
M105.267311,11.898887 
	C105.267311,15.309292 105.267311,18.719698 105.267311,22.589626 
	C100.983131,22.589626 97.585213,22.589626 94.322968,22.589626 
	C94.322968,25.311304 94.322968,27.549284 94.322968,30.229095 
	C98.074394,30.229095 101.485474,30.229095 105.219589,30.229095 
	C105.219589,34.119717 105.219589,37.560829 105.219589,41.292068 
	C108.099106,41.292068 110.636009,41.292068 113.754082,41.292068 
	C113.754082,37.420383 113.754082,33.867764 113.754082,29.857071 
	C117.736496,29.857071 121.150497,29.857071 124.548767,29.857071 
	C124.548767,27.128019 124.548767,24.901609 124.548767,22.183704 
	C120.802834,22.183704 117.394432,22.183704 113.562492,22.183704 
	C113.562492,18.258030 113.562492,14.831101 113.562492,11.161469 
	C110.695717,11.161469 108.262001,11.161469 105.267311,11.898887 
M78.892403,43.554169 
	C75.476097,43.723694 72.059792,43.893223 68.488174,44.070454 
	C68.488174,46.600769 68.488174,48.704674 68.488174,51.461643 
	C72.206108,51.461643 75.746582,51.461643 79.875885,51.461643 
	C79.875885,55.649975 79.875885,59.200348 79.875885,62.553398 
	C82.879494,62.553398 85.268021,62.553398 88.042572,62.553398 
	C88.042572,58.733822 88.042572,55.298439 88.042572,51.399998 
	C91.859779,51.399998 95.287140,51.399998 98.839455,51.399998 
	C98.839455,48.690571 98.839455,46.455887 98.839455,43.701561 
	C95.156105,43.701561 91.745834,43.701561 87.758881,43.701561 
	C87.758881,39.639206 87.758881,36.088905 87.758881,32.602654 
	C84.761108,32.602654 82.373177,32.602654 79.488762,32.602654 
	C79.488762,36.269722 79.488762,39.573189 78.892403,43.554169 
z"/>
<path fill="#FCFDFD" opacity="1.000000" stroke="none" 
	d="
M30.337879,119.564713 
	C20.896875,103.986885 21.930696,87.127640 22.383101,69.936760 
	C23.970047,69.815002 25.398294,69.610428 26.826643,69.609718 
	C62.451805,69.592041 98.076981,69.599586 133.702148,69.588058 
	C136.233231,69.587234 139.031204,69.080658 138.557465,73.321930 
	C140.959000,73.176369 143.086563,72.969856 145.217194,72.930748 
	C159.921417,72.660828 168.942413,84.912498 164.184341,98.930534 
	C159.359741,113.144600 148.115616,120.143143 134.504395,123.674599 
	C129.189362,125.053589 125.089890,127.094383 121.137352,131.084961 
	C94.559494,157.918625 51.614388,152.462921 30.337879,119.564713 
M56.430294,81.020416 
	C50.210873,79.007996 48.669342,80.474373 48.903957,87.240585 
	C48.953011,88.655281 46.892288,90.146523 45.795883,91.596504 
	C44.919655,92.755295 43.284710,93.940125 43.336903,95.049896 
	C43.402622,96.447166 44.530838,98.381889 45.754459,99.015991 
	C48.367756,100.370262 49.591774,101.841095 48.685879,104.855209 
	C47.561577,108.595985 50.451336,111.594101 54.193073,110.497284 
	C57.297356,109.587326 59.524658,109.779999 61.118309,113.097755 
	C62.483135,115.939133 67.727898,116.052307 69.064156,113.256264 
	C70.628929,109.982063 72.735046,109.523064 75.931152,110.455887 
	C79.699532,111.555748 82.021164,108.716103 81.648796,104.803329 
	C81.481445,103.044807 83.041687,101.039253 84.049622,99.278351 
	C84.818993,97.934219 86.822685,96.710358 86.709099,95.592308 
	C86.560051,94.125298 84.741562,92.890137 83.876457,91.417015 
	C82.914345,89.778717 81.353889,87.865562 81.573006,86.282303 
	C82.133484,82.232452 79.852234,79.950935 75.778564,80.249939 
	C73.668068,80.404854 70.863945,79.291916 69.367081,77.772583 
	C66.912422,75.281075 63.072399,75.086960 60.904022,77.960907 
	C59.988670,79.174118 58.466530,79.929512 56.430294,81.020416 
M76.179718,120.134956 
	C81.064568,122.401611 79.939354,125.934982 77.919868,129.438583 
	C80.305008,132.032059 81.959213,134.939423 86.228020,132.393723 
	C87.421936,131.681732 90.547768,133.264389 92.238457,134.528564 
	C95.676765,137.099472 99.206482,136.036362 100.911285,132.095245 
	C101.678505,130.321625 103.939201,129.174805 105.569725,127.799889 
	C106.900368,126.677856 109.091484,125.848488 109.446983,124.504677 
	C109.795105,123.188766 108.197098,121.422890 107.650642,119.788528 
	C107.012749,117.880669 106.536804,115.913170 106.087746,113.949333 
	C105.704582,112.273613 106.008415,109.980713 105.000504,109.035187 
	C103.958138,108.057343 101.681557,108.466080 99.980263,108.102608 
	C97.593925,107.592789 95.240959,106.927246 92.872467,106.333275 
	C91.053864,105.877197 89.137787,104.877701 87.447289,105.170830 
	C86.321770,105.365990 85.609406,107.499321 84.546173,108.605675 
	C83.064812,110.147141 81.553795,112.590195 79.834312,112.795540 
	C74.986923,113.374458 74.859055,116.118507 76.179718,120.134956 
M136.698532,103.942841 
	C135.688538,107.207878 134.678543,110.472916 133.461975,114.405762 
	C143.535751,111.465271 151.443008,106.718674 155.169556,96.837227 
	C156.700607,92.777458 156.904160,88.500816 153.798141,85.072632 
	C150.548645,81.486069 146.189774,81.605980 141.751404,82.456955 
	C139.221298,82.942062 138.296738,84.051910 138.220200,86.771385 
	C138.066696,92.225159 137.357620,97.663284 136.698532,103.942841 
z"/>
<path fill="#F4F4F4" opacity="1.000000" stroke="none" 
	d="
M121.807152,152.800171 
	C123.610680,152.837296 125.212799,152.420486 126.207344,153.016861 
	C127.722481,153.925446 129.905975,155.610062 129.822372,156.829132 
	C129.710724,158.457291 127.917747,160.232895 126.422401,161.402542 
	C125.558029,162.078644 123.858948,161.764664 122.535477,161.765366 
	C94.400581,161.780319 66.265686,161.778290 38.130787,161.770721 
	C36.968163,161.770401 35.439461,162.133881 34.717556,161.546249 
	C33.111336,160.238770 31.075623,158.545959 30.843136,156.794113 
	C30.695272,155.679947 33.294762,153.840302 34.991901,152.965286 
	C36.182037,152.351685 37.928230,152.802216 39.426098,152.802048 
	C66.728615,152.799133 94.031128,152.799973 121.807152,152.800171 
z"/>
<path fill="#EDEEEE" opacity="1.000000" stroke="none" 
	d="
M105.547798,11.530178 
	C108.262001,11.161469 110.695717,11.161469 113.562492,11.161469 
	C113.562492,14.831101 113.562492,18.258030 113.562492,22.183704 
	C117.394432,22.183704 120.802834,22.183704 124.548767,22.183704 
	C124.548767,24.901609 124.548767,27.128019 124.548767,29.857071 
	C121.150497,29.857071 117.736496,29.857071 113.754082,29.857071 
	C113.754082,33.867764 113.754082,37.420383 113.754082,41.292068 
	C110.636009,41.292068 108.099106,41.292068 105.219589,41.292068 
	C105.219589,37.560829 105.219589,34.119717 105.219589,30.229095 
	C101.485474,30.229095 98.074394,30.229095 94.322968,30.229095 
	C94.322968,27.549284 94.322968,25.311304 94.322968,22.589626 
	C97.585213,22.589626 100.983131,22.589626 105.267311,22.589626 
	C105.267311,18.719698 105.267311,15.309292 105.547798,11.530178 
z"/>
<path fill="#F6F6F6" opacity="1.000000" stroke="none" 
	d="
M79.190582,43.215408 
	C79.488762,39.573189 79.488762,36.269722 79.488762,32.602654 
	C82.373177,32.602654 84.761108,32.602654 87.758881,32.602654 
	C87.758881,36.088905 87.758881,39.639206 87.758881,43.701561 
	C91.745834,43.701561 95.156105,43.701561 98.839455,43.701561 
	C98.839455,46.455887 98.839455,48.690571 98.839455,51.399998 
	C95.287140,51.399998 91.859779,51.399998 88.042572,51.399998 
	C88.042572,55.298439 88.042572,58.733822 88.042572,62.553398 
	C85.268021,62.553398 82.879494,62.553398 79.875885,62.553398 
	C79.875885,59.200348 79.875885,55.649975 79.875885,51.461643 
	C75.746582,51.461643 72.206108,51.461643 68.488174,51.461643 
	C68.488174,48.704674 68.488174,46.600769 68.488174,44.070454 
	C72.059792,43.893223 75.476097,43.723694 79.190582,43.215408 
z"/>
<path fill="#58BAF9" opacity="1.000000" stroke="none" 
	d="
M56.825249,80.956711 
	C58.466530,79.929512 59.988670,79.174118 60.904022,77.960907 
	C63.072399,75.086960 66.912422,75.281075 69.367081,77.772583 
	C70.863945,79.291916 73.668068,80.404854 75.778564,80.249939 
	C79.852234,79.950935 82.133484,82.232452 81.573006,86.282303 
	C81.353889,87.865562 82.914345,89.778717 83.876457,91.417015 
	C84.741562,92.890137 86.560051,94.125298 86.709099,95.592308 
	C86.822685,96.710358 84.818993,97.934219 84.049622,99.278351 
	C83.041687,101.039253 81.481445,103.044807 81.648796,104.803329 
	C82.021164,108.716103 79.699532,111.555748 75.931152,110.455887 
	C72.735046,109.523064 70.628929,109.982063 69.064156,113.256264 
	C67.727898,116.052307 62.483135,115.939133 61.118309,113.097755 
	C59.524658,109.779999 57.297356,109.587326 54.193073,110.497284 
	C50.451336,111.594101 47.561577,108.595985 48.685879,104.855209 
	C49.591774,101.841095 48.367756,100.370262 45.754459,99.015991 
	C44.530838,98.381889 43.402622,96.447166 43.336903,95.049896 
	C43.284710,93.940125 44.919655,92.755295 45.795883,91.596504 
	C46.892288,90.146523 48.953011,88.655281 48.903957,87.240585 
	C48.669342,80.474373 50.210873,79.007996 56.825249,80.956711 
M59.926979,88.028511 
	C56.703468,90.245728 54.489277,92.961952 55.549202,97.204071 
	C56.774502,102.108070 61.863815,105.051491 67.262314,104.021797 
	C71.684135,103.178398 75.256462,98.878540 74.881401,94.851021 
	C74.435165,90.059196 70.023735,86.612961 64.519913,86.885330 
	C63.220524,86.949623 61.940910,87.413567 59.926979,88.028511 
z"/>
<path fill="#59BAF9" opacity="1.000000" stroke="none" 
	d="
M75.854568,119.927704 
	C74.859055,116.118507 74.986923,113.374458 79.834312,112.795540 
	C81.553795,112.590195 83.064812,110.147141 84.546173,108.605675 
	C85.609406,107.499321 86.321770,105.365990 87.447289,105.170830 
	C89.137787,104.877701 91.053864,105.877197 92.872467,106.333275 
	C95.240959,106.927246 97.593925,107.592789 99.980263,108.102608 
	C101.681557,108.466080 103.958138,108.057343 105.000504,109.035187 
	C106.008415,109.980713 105.704582,112.273613 106.087746,113.949333 
	C106.536804,115.913170 107.012749,117.880669 107.650642,119.788528 
	C108.197098,121.422890 109.795105,123.188766 109.446983,124.504677 
	C109.091484,125.848488 106.900368,126.677856 105.569725,127.799889 
	C103.939201,129.174805 101.678505,130.321625 100.911285,132.095245 
	C99.206482,136.036362 95.676765,137.099472 92.238457,134.528564 
	C90.547768,133.264389 87.421936,131.681732 86.228020,132.393723 
	C81.959213,134.939423 80.305008,132.032059 77.919868,129.438583 
	C79.939354,125.934982 81.064568,122.401611 75.854568,119.927704 
M97.721260,122.735374 
	C98.935356,119.422325 98.244942,116.397377 94.706429,115.734489 
	C92.592323,115.338440 89.527107,116.373375 87.993500,117.885117 
	C87.065994,118.799408 87.526825,122.437836 88.641739,123.825874 
	C90.757553,126.459976 93.823135,126.216454 96.530777,124.057808 
	C96.785812,123.854492 96.996346,123.595360 97.721260,122.735374 
z"/>
<path fill="#212327" opacity="1.000000" stroke="none" 
	d="
M136.788193,103.525360 
	C137.357620,97.663284 138.066696,92.225159 138.220200,86.771385 
	C138.296738,84.051910 139.221298,82.942062 141.751404,82.456955 
	C146.189774,81.605980 150.548645,81.486069 153.798141,85.072632 
	C156.904160,88.500816 156.700607,92.777458 155.169556,96.837227 
	C151.443008,106.718674 143.535751,111.465271 133.461975,114.405762 
	C134.678543,110.472916 135.688538,107.207878 136.788193,103.525360 
z"/>
<path fill="#F2FBFE" opacity="1.000000" stroke="none" 
	d="
M60.289589,87.861084 
	C61.940910,87.413567 63.220524,86.949623 64.519913,86.885330 
	C70.023735,86.612961 74.435165,90.059196 74.881401,94.851021 
	C75.256462,98.878540 71.684135,103.178398 67.262314,104.021797 
	C61.863815,105.051491 56.774502,102.108070 55.549202,97.204071 
	C54.489277,92.961952 56.703468,90.245728 60.289589,87.861084 
M65.395210,90.128586 
	C61.803135,90.298546 58.865582,92.003906 59.400978,95.670242 
	C59.682655,97.599144 62.596287,100.465843 64.381058,100.510185 
	C66.494461,100.562683 69.735191,98.486481 70.582329,96.514557 
	C71.988449,93.241508 69.405022,91.114243 65.395210,90.128586 
z"/>
<path fill="#EDF9FE" opacity="1.000000" stroke="none" 
	d="
M97.474396,123.048752 
	C96.996346,123.595360 96.785812,123.854492 96.530777,124.057808 
	C93.823135,126.216454 90.757553,126.459976 88.641739,123.825874 
	C87.526825,122.437836 87.065994,118.799408 87.993500,117.885117 
	C89.527107,116.373375 92.592323,115.338440 94.706429,115.734489 
	C98.244942,116.397377 98.935356,119.422325 97.474396,123.048752 
z"/>
<path fill="#5BBCF9" opacity="1.000000" stroke="none" 
	d="
M65.775589,90.171204 
	C69.405022,91.114243 71.988449,93.241508 70.582329,96.514557 
	C69.735191,98.486481 66.494461,100.562683 64.381058,100.510185 
	C62.596287,100.465843 59.682655,97.599144 59.400978,95.670242 
	C58.865582,92.003906 61.803135,90.298546 65.775589,90.171204 
z"/>
</svg>